# xmcd
#
# Track frame offsets:
# 182
# 12497
# 23532
# 34915
# 44882
# 55777
# 68410
# 82012
# 92300
# 106987
# 118777
# 130002
# 143107
# 152892
#
# Disc length: 2193 seconds
#
#
# Revision: 0
# Processed by: cddbd v1.5.1PL0 Copyright (c) Steve Scherf et al.
# Submitted via: FreeRIP 2.931 
#
DISCID=b3088f0e
DTITLE=Dan Pickett - 1949 Country Blues
DYEAR=1949
DGENRE=Blues
TTITLE0=Baby How Long
TTITLE1=You Got To Do Better
TTITLE2=Ride To A Funeral In A V-8
TTITLE3=Decoration Day
TTITLE4=Drivin' That Thing
TTITLE5=That's Grieving Me
TTITLE6=99 1/2 Won't Do
TTITLE7=Baby Don't You Want To Go
TTITLE8=Chicago Blues
TTITLE9=Something's Gone Wrong
TTITLE10=Early One Morning
TTITLE11=Lemon Man
TTITLE12=Number Writer
TTITLE13=Laughing Rag
EXTD=
EXTT0=
EXTT1=
EXTT2=
EXTT3=
EXTT4=
EXTT5=
EXTT6=
EXTT7=
EXTT8=
EXTT9=
EXTT10=
EXTT11=
EXTT12=
EXTT13=
PLAYORDER=
